<svg width="772" height="784" viewBox="0 0 772 784" fill="none" xmlns="http://www.w3.org/2000/svg">
<path d="M443.087 28.0426C451.801 28.0426 455.015 30.6505 455.681 40.4724C457.156 61.4582 459.758 82.3496 463.477 103.056C464.248 107.438 470.493 111.855 475.243 114.365C489.76 122.076 504.592 129.255 519.705 135.719C521.167 136.284 522.727 136.556 524.294 136.518C527.255 136.518 530.461 135.733 532.503 134.352C553.503 120.099 574.039 105.16 595.046 90.2199L687.339 183.041C672.604 202.979 657.519 222.742 643.29 243.094C640.484 247.118 638.589 254.311 640.238 258.517C646.034 273.198 654.432 286.854 660.108 301.577C663.939 311.525 670.513 315.598 679.95 317.33C696.214 320.281 712.394 323.843 728.763 326.002C738.712 327.32 743.006 331.877 742.957 341.551C742.802 377.109 743.118 412.674 742.143 448.211C742.016 452.67 735.407 460.571 731.52 460.746C694.222 462.429 671.397 478.189 659.386 515.99C653.071 535.746 657.281 546.837 667.917 560.157C676.568 571.059 685.507 581.89 692.797 593.654C695.337 597.769 695.814 607.122 693.022 609.961C664.697 638.838 635.488 666.859 605.318 696.346C591.356 685.641 577.695 675.826 564.883 665.029C556.386 657.872 547.195 654.135 537.667 654.135C531.497 654.2 525.422 655.657 519.895 658.397C512.689 661.84 505.462 666.354 497.807 667.511C479.565 670.315 470.984 679.513 470.352 698.253C469.917 711.166 466.318 723.961 464.34 736.811C462.522 748.673 458.249 755.418 444.596 755.418C444.069 755.418 443.529 755.418 442.975 755.418C434.801 755.116 426.613 755.011 418.418 755.011C396.036 755.011 373.633 755.838 351.237 755.943H349.483C325.571 755.943 323.642 753.258 321.453 728.602C320.084 713.179 318.941 697.566 315.559 682.521C314.352 677.144 307.518 672.096 302.081 668.864C296.194 665.359 287.711 665.73 282.491 661.678C272.549 653.967 263.316 650.819 254.552 650.819C239.614 650.819 226.045 659.933 212.63 671.15C210.389 673.114 208.019 674.927 205.536 676.576C194.507 683.495 188.424 687.169 183.232 687.169C177.008 687.169 172.062 681.918 161.404 670.673C140.439 648.54 119.039 626.793 97.0363 605.705C90.7988 599.732 90.5392 595.091 94.6578 588.985C105.007 573.618 115.194 558.138 126.168 543.206C133.184 533.643 134.994 526.576 126.813 515.38C118.05 503.385 114.759 487.541 107.427 474.284C104.621 469.166 97.7099 464.588 91.8442 463.158C75.3068 459.12 58.3414 456.848 41.5374 453.883C32.4653 452.277 27.7714 448.183 28.0942 437.66C29.1326 404.199 29.8412 370.688 29.1957 337.226C28.9361 323.822 33.7423 320.176 46.1751 319.601C61.6812 318.899 77.0998 316.884 92.2652 313.579C97.7449 312.38 103.716 306.73 106.557 301.528C114.458 287.058 120.429 271.557 127.978 256.877C131.486 250.07 130.855 246.158 125.873 239.827C113.616 224.193 102.642 207.473 92.1951 190.535C90.0902 187.163 90.7918 179.038 93.4931 176.255C119.502 149.25 146.312 123.016 172.63 96.2912C175.479 93.4028 177.829 91.8674 180.453 91.8674C182.558 91.8674 184.887 92.877 187.771 95.0012C205.845 108.265 224.452 120.842 243.375 132.859C244.936 133.709 246.701 134.112 248.476 134.022C251.369 133.969 254.232 133.428 256.945 132.424C272.346 126.731 287.922 121.13 302.41 113.544C307.813 110.74 312.437 103.028 313.924 96.7188C318.274 78.2388 320.997 59.3591 324.098 40.5916C325.466 32.3331 329.458 28.8979 338.179 28.8979H338.313C344.094 28.8979 349.883 28.9095 355.678 28.9329C384.492 28.9329 413.284 28.6361 442.056 28.0426H443.066H443.087ZM388.339 527.39C451.289 527.39 502.866 487.562 518.098 425.076C537.113 347.048 497.049 282.41 435.075 262.331C417.099 256.491 399.818 253.785 383.54 253.785C321.712 253.785 274.366 292.94 256.299 348.709C231.686 433.181 279.278 502.845 344.578 521.171C358.827 525.231 373.565 527.321 388.381 527.383L388.339 527.39ZM443.087 0H441.48C413.612 0.581883 384.754 0.87633 355.713 0.87633C349.995 0.87633 344.192 0.87633 338.453 0.841277H338.215C327.129 0.841277 317.769 3.96802 310.402 10.1304C303.035 16.2927 298.222 25.0841 296.439 36.0207C295.845 39.6428 295.256 43.2697 294.671 46.9012C292.244 61.96 289.949 76.1916 286.68 90.1078C275.769 95.548 263.87 99.9858 251.325 104.62C234.724 93.8935 218.973 83.0691 204.421 72.3708C196.562 66.6011 188.767 63.7968 180.488 63.7968C165.27 63.7968 155.777 73.4295 152.661 76.5983C142.621 86.7917 132.314 97.1184 122.33 107.102C106.193 123.226 89.5008 139.96 73.3072 156.779C65.9822 164.407 63.7299 173.997 63.1756 180.692C62.6003 187.121 63.0423 196.592 68.3677 205.23C79.8674 223.892 89.6411 238.425 99.4289 251.381C97.1556 256.099 95.0296 260.789 92.9458 265.402C89.4797 273.022 86.1961 280.236 82.5827 286.995C70.1684 289.481 57.5818 291.014 44.9333 291.58C36.226 291.979 23.4774 293.683 13.3599 303.498C0.730586 315.836 1.0393 332.339 1.14455 337.759C1.81811 372.419 0.96914 407.269 0.0289563 436.763C-0.35694 449.235 3.11613 459.66 10.3359 467.75C16.7137 474.894 25.5613 479.507 36.64 481.463C41.5514 482.325 46.4628 483.138 51.2409 483.924C62.7055 485.809 73.5598 487.597 84.0351 490.093C85.7681 493.598 87.3959 497.756 89.0938 502.095C92.3775 510.438 96.047 519.783 101.948 528.736C93.1984 540.752 84.9472 553.055 76.9486 564.974C75.0776 567.745 73.2066 570.514 71.3356 573.281C59.4079 591.032 61.7022 610.704 77.5661 625.91C97.8081 645.308 118.555 666.242 140.986 689.917L141.134 690.071C146.95 696.22 151.553 701.071 156.31 704.927C164.835 711.825 173.619 715.177 183.189 715.177C196.696 715.177 207.171 708.608 220.425 700.286C223.867 698.064 227.149 695.604 230.248 692.925L230.577 692.651C237.685 686.727 247.908 678.847 254.517 678.847C257.394 678.847 261 680.523 265.252 683.818C272.823 689.686 280.877 691.628 286.203 692.932C286.982 693.121 287.971 693.359 288.637 693.542C288.841 693.668 289.037 693.794 289.22 693.92C291.128 704.219 292.082 715.184 293.086 726.695C293.212 728.16 293.345 729.618 293.472 731.084C294.671 744.593 296.033 759.904 307.42 771.325C320.049 783.993 337.05 783.993 349.455 783.993H351.335C361.986 783.944 372.7 783.727 383.07 783.523C394.689 783.292 406.715 783.061 418.39 783.061C427.013 783.061 434.703 783.187 441.908 783.446C442.806 783.446 443.698 783.495 444.554 783.495C459.007 783.495 470.682 778.917 479.242 769.881C488.202 760.423 490.84 748.926 492.04 741.102C492.622 737.316 493.401 733.39 494.222 729.184C495.99 720.189 497.99 710.003 498.354 699.213C498.38 698.126 498.481 697.041 498.656 695.967C499.761 695.654 500.886 695.42 502.024 695.266C512.415 693.675 520.877 689.342 527.676 685.865C529.205 685.08 530.651 684.344 531.963 683.713C533.715 682.797 535.649 682.28 537.625 682.198C540.298 682.198 543.371 683.643 546.746 686.496C556.176 694.432 565.999 701.849 575.513 709.014C579.638 712.134 583.932 715.324 588.142 718.584L607.444 733.46L624.886 716.438C631.51 709.968 638.182 703.483 644.63 697.208C668.331 674.157 690.72 652.382 713.053 629.626C719.838 622.706 723.262 612.996 722.946 601.583C722.82 596.725 721.824 587.33 716.632 578.974C709.405 567.28 701.196 556.953 693.19 546.97C692.082 545.568 690.966 544.166 689.864 542.764C683.879 535.227 683.213 533.545 686.09 524.48C694.193 498.989 705.967 489.974 732.748 488.768C742.669 488.319 751.98 483.264 759.656 474.165C764.279 468.682 769.857 459.863 770.18 448.99C770.882 422.686 770.931 396.108 770.952 370.414C770.952 360.992 770.952 351.247 771.008 341.671C771.064 329.577 767.451 319.482 760.259 311.665C753.46 304.269 744.121 299.747 732.425 298.198C721.901 296.796 711.292 294.762 700.101 292.589C695.386 291.678 690.517 290.738 685.648 289.848C682.413 281.73 678.694 274.27 675.088 267.049C673.018 262.899 671.026 258.889 669.229 254.977C678.666 241.657 688.636 228.273 698.305 215.311C702.108 210.214 706.023 204.942 709.896 199.726L724.216 180.37L707.272 163.292L614.958 70.471L598.175 53.5893L578.775 67.3863C573.562 71.0949 568.314 74.8456 563.241 78.4701C549.566 88.285 536.537 97.5741 523.248 106.688C512.275 101.78 501.042 96.2982 489.753 90.3461C486.728 71.8731 484.722 54.8793 483.648 38.6286C483.354 34.1348 482.456 20.4571 471.721 10.2566C460.986 0.0560851 447.507 0 443.087 0ZM283.116 356.954C298.334 310.571 336.769 281.828 383.54 281.828C397.306 281.828 411.745 284.246 426.452 289.014C478.821 305.993 505.308 359.218 490.868 418.451C478.891 467.61 438.66 499.347 388.381 499.347C376.131 499.285 363.948 497.547 352.17 494.18C326.149 486.742 304.145 469.292 290.988 445.659C280.933 427.558 271.433 397.503 283.13 356.954H283.116Z" fill="#70BDE7"/>
</svg>
